<svg width="1920" height="1080" viewBox="0 0 1920 1080" fill="none" xmlns="http://www.w3.org/2000/svg"><rect width="1920" height="1080" fill="#000"/><g transform="translate(960 380)" stroke="#50fc00" fill="none"><path d="M-220-112h440a20 20 0 0120 20v190a20 20 0 01-20 20H35l-95 74 14-74h-174a20 20 0 01-20-20V-92a20 20 0 0120-20Z" stroke-width="4"/><circle cx="-125" cy="-25" r="34" stroke-width="3"/><circle cx="0" cy="-25" r="34" stroke-width="3"/><circle cx="125" cy="-25" r="34" stroke-width="3"/><path d="M-155 42c20-27 40-27 60 0M-30 42C-10 15 10 15 30 42M95 42c20-27 40-27 60 0M-150-25h50M-25-25h50M100-25h50M-175-78h350M-175 82h230" stroke-width="3"/></g><text x="960" y="775" text-anchor="middle" font-family="system-ui, sans-serif" font-size="110" font-weight="300"><tspan fill="#fff">Elpha</tspan><tspan fill="#50fc00">me</tspan></text></svg>
